
<!-- <svg xmlns="http://www.w3.org/2000/svg" fill="#ff6b08" viewBox="0 0 90 112.5"><path d="M71.942 18.863c-2.678 1.199-5.245 2.661-7.695 4.293-4.927 3.242-9.432 7.102-13.657 11.22-4.224 4.126-8.156 8.542-11.874 13.134-.93 1.149-5.093 6.262-5.093 6.262L16.31 27.827 9.773 45.944l23.414 27.924c2.274-4.603 4.462-9.147 6.608-13.095.533-1.004 1.092-1.95 1.626-2.909 0 0 2.747-4.83 3.47-6.047 2.89-4.866 6.013-9.606 9.452-14.11 3.443-4.495 7.186-8.786 11.43-12.558 2.11-1.899 4.358-3.654 6.766-5.182 2.403-1.53 4.957-2.871 7.688-3.835-2.841.56-5.613 1.53-8.285 2.731z"/><text y="105" font-size="5" font-weight="bold" font-family="'Helvetica Neue', Helvetica, Arial-Unicode, Arial, Sans-serif"></text><text y="110" font-size="5" font-weight="bold" font-family="'Helvetica Neue', Helvetica, Arial-Unicode, Arial, Sans-serif"></text></svg>

<svg xmlns="http://www.w3.org/2000/svg" viewBox="0 0 90 112.5">
<path d="M71.942 18.863c-2.678 1.199-5.245 2.661-7.695 4.293-4.927 3.242-9.432 7.102-13.657 11.22-4.224 4.126-8.156 8.542-11.874 13.134-.93 1.149-5.093 6.262-5.093 6.262L16.31 27.827 9.773 45.944l23.414 27.924c2.274-4.603 4.462-9.147 6.608-13.095.533-1.004 1.092-1.95 1.626-2.909 0 0 2.747-4.83 3.47-6.047 2.89-4.866 6.013-9.606 9.452-14.11 3.443-4.495 7.186-8.786 11.43-12.558 2.11-1.899 4.358-3.654 6.766-5.182 2.403-1.53 4.957-2.871 7.688-3.835-2.841.56-5.613 1.53-8.285 2.731z"/><t y="105" font-size="5" font-weight="bold" font-family="'Helvetica Neue', Helvetica, Arial-Unicode, Arial, Sans-serif">
</svg> -->

<svg xmlns="http://www.w3.org/2000/svg" 
xmlns:xlink="http://www.w3.org/1999/xlink" 
version="1.1" 
x="0px" y="0px" 
viewBox="0 0 90 112.5" 
style="enable-background:new 0 0 90 90;" 
xml:space="preserve">

<path d="M71.9418945,18.8634033c-2.6781006,1.1981201-5.244873,2.6610718-7.6948853,4.2927246       c-4.9273071,3.2418823-9.4319458,7.1021729-13.6573486,11.2189941       c-4.2234497,4.1269531-8.1554565,8.5432739-11.8733521,13.135376       c-0.9299316,1.1483154-5.0931396,6.2611084-5.0931396,6.2611084L16.3092651,27.8265991L9.7731934,45.9440918       l23.4138794,27.923584c2.2736206-4.6030884,4.461731-9.1470947,6.6079102-13.0950928       c0.5333252-1.0039673,1.0917969-1.9487915,1.6256104-2.9082642c0,0,2.7476807-4.8302002,3.4702759-6.046936       c2.8895264-4.8664551,6.0128174-9.6068726,9.4520264-14.1101074       c3.4431763-4.4949951,7.1862793-8.7862549,11.4295654-12.5586548c2.1114502-1.8986206,4.3588257-3.6541138,6.7667236-5.1818237       c2.4031982-1.5307007,4.9564819-2.8710938,7.6876221-3.8344727       C77.3856812,16.6912842,74.6135864,17.6619873,71.9418945,18.8634033z"/>


</svg>